<svg xmlns="http://www.w3.org/2000/svg" xmlns:xlink="http://www.w3.org/1999/xlink" width="375" zoomAndPan="magnify" viewBox="0 0 375 374.999991" height="374.999991" preserveAspectRatio="xMidYMid meet" version="1.0"><defs><g><g id="id1"/></g><clipPath id="id2"><path d="M 123 99.667969 L 171.460938 99.667969 L 171.460938 146 L 123 146 Z M 123 99.667969 " clip-rule="nonzero"/></clipPath><clipPath id="id3"><path d="M 112.210938 142 L 161 142 L 161 187.417969 L 112.210938 187.417969 Z M 112.210938 142 " clip-rule="nonzero"/></clipPath><clipPath id="id4"><path d="M 168.125 108 L 200 108 L 200 183.324219 L 168.125 183.324219 Z M 168.125 108 " clip-rule="nonzero"/></clipPath><clipPath id="id5"><path d="M 198 103.824219 L 262.625 103.824219 L 262.625 181 L 198 181 Z M 198 103.824219 " clip-rule="nonzero"/></clipPath></defs><rect x="-37.5" width="450" fill="rgb(100%, 100%, 100%)" y="-37.499999" height="449.999989" fill-opacity="1"/><rect x="-37.5" width="450" fill="rgb(100%, 100%, 100%)" y="-37.499999" height="449.999989" fill-opacity="1"/><rect x="-37.5" width="450" fill="rgb(100%, 100%, 100%)" y="-37.499999" height="449.999989" fill-opacity="1"/><path fill="rgb(100%, 8.628845%, 8.628845%)" d="M 133.507812 132.574219 C 138.394531 126.691406 154.328125 121.105469 167.433594 115.929688 C 167.761719 114.28125 168.097656 112.632812 168.453125 111 C 155.550781 116.285156 136.070312 122.929688 131.039062 128.980469 C 126.019531 135.023438 126.203125 143.640625 131.074219 149.449219 C 128.441406 144.390625 129.386719 137.53125 133.507812 132.574219 " fill-opacity="1" fill-rule="nonzero"/><g clip-path="url(#id2)"><path fill="rgb(100%, 8.628845%, 8.628845%)" d="M 128.359375 126.769531 C 134.167969 119.78125 155.585938 113.203125 169.316406 107.238281 C 169.953125 104.625 170.65625 102.082031 171.464844 99.671875 C 156.546875 107.984375 134.824219 112.835938 127.851562 121.222656 C 122.0625 128.1875 121.894531 137.941406 126.832031 145.023438 C 123.550781 139.386719 123.941406 132.082031 128.359375 126.769531 " fill-opacity="1" fill-rule="nonzero"/></g><path fill="rgb(100%, 8.628845%, 8.628845%)" d="M 137.136719 138.558594 C 141.394531 133.4375 154.03125 128.535156 165.886719 123.9375 C 166.167969 122.484375 166.449219 121.015625 166.734375 119.535156 C 154.632812 124.277344 140.382812 129.734375 136.1875 134.785156 C 132.347656 139.40625 131.554688 145.53125 133.570312 150.757812 C 133.042969 146.53125 134.191406 142.101562 137.136719 138.558594 " fill-opacity="1" fill-rule="nonzero"/><path fill="rgb(54.899597%, 32.159424%, 100%)" d="M 150.167969 154.503906 C 145.28125 160.382812 129.347656 165.972656 116.238281 171.148438 C 115.914062 172.792969 115.578125 174.441406 115.222656 176.078125 C 128.125 170.792969 147.605469 164.144531 152.636719 158.09375 C 157.65625 152.054688 157.472656 143.4375 152.601562 137.628906 C 155.234375 142.683594 154.289062 149.546875 150.167969 154.503906 " fill-opacity="1" fill-rule="nonzero"/><g clip-path="url(#id3)"><path fill="rgb(54.899597%, 32.159424%, 100%)" d="M 155.316406 160.304688 C 149.507812 167.296875 128.085938 173.875 114.359375 179.839844 C 113.722656 182.449219 113.019531 184.992188 112.210938 187.402344 C 127.128906 179.09375 148.851562 174.242188 155.824219 165.855469 C 161.613281 158.886719 161.777344 149.136719 156.84375 142.050781 C 160.125 147.6875 159.734375 154.992188 155.316406 160.304688 " fill-opacity="1" fill-rule="nonzero"/></g><path fill="rgb(54.899597%, 32.159424%, 100%)" d="M 146.539062 148.519531 C 142.28125 153.636719 129.640625 158.539062 117.789062 163.140625 C 117.507812 164.589844 117.226562 166.058594 116.941406 167.539062 C 129.039062 162.800781 143.292969 157.339844 147.488281 152.292969 C 151.328125 147.671875 152.121094 141.542969 150.105469 136.316406 C 150.632812 140.546875 149.480469 144.976562 146.539062 148.519531 " fill-opacity="1" fill-rule="nonzero"/><path fill="rgb(100%, 8.628845%, 8.628845%)" d="M 208.78125 155.382812 L 198.214844 180.550781 L 198.066406 180.550781 L 188.996094 158.941406 L 199.636719 133.597656 Z M 208.78125 155.382812 " fill-opacity="1" fill-rule="nonzero"/><g clip-path="url(#id4)"><path fill="rgb(54.899597%, 32.159424%, 100%)" d="M 199.636719 133.597656 L 188.996094 158.941406 L 179.925781 180.550781 L 178.765625 183.316406 L 177.601562 180.550781 L 168.125 157.96875 L 178.355469 133.597656 L 188.996094 108.25 Z M 199.636719 133.597656 " fill-opacity="1" fill-rule="nonzero"/></g><g clip-path="url(#id5)"><path fill="rgb(54.899597%, 32.159424%, 100%)" d="M 262.628906 180.550781 L 241.351562 180.550781 L 230.421875 154.519531 L 219.496094 180.550781 L 198.214844 180.550781 L 208.78125 155.382812 L 219.78125 129.175781 L 230.421875 103.828125 L 241.0625 129.175781 Z M 262.628906 180.550781 " fill-opacity="1" fill-rule="nonzero"/></g><g fill="rgb(100%, 8.628845%, 8.628845%)" fill-opacity="1"><g transform="translate(86.465445, 228.944047)"><g><path d="M 6.046875 0.203125 C 4.097656 0.203125 2.691406 -0.28125 1.828125 -1.25 C 0.960938 -2.21875 0.53125 -3.773438 0.53125 -5.921875 L 0.53125 -8.03125 L 4.75 -8.03125 L 4.75 -5.34375 C 4.75 -4.28125 5.09375 -3.75 5.78125 -3.75 C 6.15625 -3.75 6.414062 -3.859375 6.5625 -4.078125 C 6.71875 -4.304688 6.796875 -4.6875 6.796875 -5.21875 C 6.796875 -5.925781 6.710938 -6.507812 6.546875 -6.96875 C 6.378906 -7.425781 6.164062 -7.804688 5.90625 -8.109375 C 5.65625 -8.421875 5.195312 -8.898438 4.53125 -9.546875 L 2.671875 -11.40625 C 1.242188 -12.800781 0.53125 -14.347656 0.53125 -16.046875 C 0.53125 -17.878906 0.945312 -19.273438 1.78125 -20.234375 C 2.625 -21.191406 3.851562 -21.671875 5.46875 -21.671875 C 7.40625 -21.671875 8.796875 -21.15625 9.640625 -20.125 C 10.492188 -19.101562 10.921875 -17.503906 10.921875 -15.328125 L 6.546875 -15.328125 L 6.53125 -16.796875 C 6.53125 -17.078125 6.445312 -17.300781 6.28125 -17.46875 C 6.125 -17.632812 5.90625 -17.71875 5.625 -17.71875 C 5.289062 -17.71875 5.039062 -17.625 4.875 -17.4375 C 4.707031 -17.257812 4.625 -17.015625 4.625 -16.703125 C 4.625 -16.003906 5.023438 -15.28125 5.828125 -14.53125 L 8.328125 -12.125 C 8.910156 -11.5625 9.390625 -11.023438 9.765625 -10.515625 C 10.148438 -10.003906 10.457031 -9.398438 10.6875 -8.703125 C 10.925781 -8.015625 11.046875 -7.195312 11.046875 -6.25 C 11.046875 -4.132812 10.65625 -2.53125 9.875 -1.4375 C 9.101562 -0.34375 7.828125 0.203125 6.046875 0.203125 Z M 6.046875 0.203125 "/></g></g></g><g fill="rgb(100%, 8.628845%, 8.628845%)" fill-opacity="1"><g transform="translate(101.663633, 228.944047)"><g><path d="M 0.84375 -19.53125 L 0.84375 -22.578125 L 5.21875 -22.578125 L 5.21875 -19.53125 Z M 0.84375 0 L 0.84375 -18.296875 L 5.21875 -18.296875 L 5.21875 0 Z M 0.84375 0 "/></g></g></g><g fill="rgb(100%, 8.628845%, 8.628845%)" fill-opacity="1"><g transform="translate(111.412694, 228.944047)"><g><path d="M 0.875 -18.296875 L 5.15625 -18.296875 L 5.15625 -16.171875 C 5.351562 -16.953125 5.691406 -17.535156 6.171875 -17.921875 C 6.660156 -18.304688 7.34375 -18.5 8.21875 -18.5 C 8.9375 -18.5 9.554688 -18.335938 10.078125 -18.015625 C 10.609375 -17.691406 10.984375 -17.242188 11.203125 -16.671875 C 11.566406 -17.304688 11.972656 -17.769531 12.421875 -18.0625 C 12.867188 -18.351562 13.492188 -18.5 14.296875 -18.5 C 15.734375 -18.5 16.726562 -18.0625 17.28125 -17.1875 C 17.84375 -16.3125 18.125 -15.039062 18.125 -13.375 L 18.078125 0 L 13.671875 0 L 13.671875 -13.453125 C 13.671875 -14.628906 13.375 -15.21875 12.78125 -15.21875 C 12.363281 -15.21875 12.0625 -15.015625 11.875 -14.609375 C 11.6875 -14.203125 11.59375 -13.71875 11.59375 -13.15625 L 11.59375 0 L 7.21875 0 L 7.21875 -13.453125 C 7.21875 -13.960938 7.164062 -14.375 7.0625 -14.6875 C 6.957031 -15.007812 6.726562 -15.171875 6.375 -15.171875 C 5.925781 -15.171875 5.609375 -14.945312 5.421875 -14.5 C 5.242188 -14.0625 5.15625 -13.535156 5.15625 -12.921875 L 5.15625 0 L 0.875 0 Z M 0.875 -18.296875 "/></g></g></g><g fill="rgb(100%, 8.628845%, 8.628845%)" fill-opacity="1"><g transform="translate(134.034709, 228.944047)"><g><path d="M 6.203125 0.203125 C 2.546875 0.203125 0.71875 -1.6875 0.71875 -5.46875 L 0.71875 -12.828125 C 0.71875 -14.554688 1.207031 -15.929688 2.1875 -16.953125 C 3.164062 -17.984375 4.503906 -18.5 6.203125 -18.5 C 7.898438 -18.5 9.234375 -17.984375 10.203125 -16.953125 C 11.179688 -15.929688 11.671875 -14.554688 11.671875 -12.828125 L 11.671875 -5.46875 C 11.671875 -1.6875 9.847656 0.203125 6.203125 0.203125 Z M 6.203125 -3.171875 C 6.546875 -3.171875 6.800781 -3.296875 6.96875 -3.546875 C 7.132812 -3.796875 7.21875 -4.140625 7.21875 -4.578125 L 7.21875 -13.53125 C 7.21875 -14.59375 6.878906 -15.125 6.203125 -15.125 C 5.515625 -15.125 5.171875 -14.59375 5.171875 -13.53125 L 5.171875 -4.578125 C 5.171875 -4.140625 5.253906 -3.796875 5.421875 -3.546875 C 5.585938 -3.296875 5.847656 -3.171875 6.203125 -3.171875 Z M 6.203125 -3.171875 "/></g></g></g><g fill="rgb(100%, 8.628845%, 8.628845%)" fill-opacity="1"><g transform="translate(150.132758, 228.944047)"><g><path d="M 0.875 -18.296875 L 5.25 -18.296875 L 5.25 -15.96875 C 5.4375 -16.71875 5.753906 -17.328125 6.203125 -17.796875 C 6.648438 -18.265625 7.25 -18.5 8 -18.5 C 9.226562 -18.5 10.140625 -18.117188 10.734375 -17.359375 C 11.328125 -16.597656 11.625 -15.519531 11.625 -14.125 L 11.625 0 L 7.328125 0 L 7.328125 -13.671875 C 7.328125 -14.078125 7.242188 -14.421875 7.078125 -14.703125 C 6.921875 -14.984375 6.675781 -15.125 6.34375 -15.125 C 5.894531 -15.125 5.597656 -14.921875 5.453125 -14.515625 C 5.316406 -14.109375 5.25 -13.5625 5.25 -12.875 L 5.25 0 L 0.875 0 Z M 0.875 -18.296875 "/></g></g></g><g fill="rgb(100%, 8.628845%, 8.628845%)" fill-opacity="1"><g transform="translate(166.280805, 228.944047)"><g/></g></g><g fill="rgb(100%, 8.628845%, 8.628845%)" fill-opacity="1"><g transform="translate(175.804898, 228.944047)"><g><path d="M 0.953125 0 L 0.953125 -21.46875 L 7.5 -21.46875 L 9.296875 -8.375 L 11.09375 -21.46875 L 17.703125 -21.46875 L 17.703125 0 L 13.78125 0 L 13.78125 -15.46875 L 11.296875 0 L 7.453125 0 L 4.828125 -15.46875 L 4.828125 0 Z M 0.953125 0 "/></g></g></g><g fill="rgb(100%, 8.628845%, 8.628845%)" fill-opacity="1"><g transform="translate(198.126964, 228.944047)"><g><path d="M 4.203125 0.203125 C 2.785156 0.203125 1.8125 -0.265625 1.28125 -1.203125 C 0.757812 -2.148438 0.5 -3.5 0.5 -5.25 C 0.5 -6.6875 0.6875 -7.785156 1.0625 -8.546875 C 1.4375 -9.316406 1.957031 -9.878906 2.625 -10.234375 C 3.289062 -10.597656 4.304688 -10.992188 5.671875 -11.421875 L 6.875 -11.828125 L 6.875 -13.703125 C 6.875 -14.179688 6.773438 -14.550781 6.578125 -14.8125 C 6.390625 -15.070312 6.164062 -15.203125 5.90625 -15.203125 C 5.664062 -15.203125 5.457031 -15.09375 5.28125 -14.875 C 5.113281 -14.65625 5.03125 -14.363281 5.03125 -14 L 5.03125 -12.90625 L 0.78125 -12.90625 L 0.78125 -13.5 C 0.78125 -15.300781 1.195312 -16.582031 2.03125 -17.34375 C 2.875 -18.113281 4.25 -18.5 6.15625 -18.5 C 7.664062 -18.5 8.894531 -18.101562 9.84375 -17.3125 C 10.800781 -16.519531 11.28125 -15.398438 11.28125 -13.953125 L 11.28125 0 L 6.921875 0 L 6.921875 -2.171875 C 6.703125 -1.421875 6.351562 -0.835938 5.875 -0.421875 C 5.40625 -0.00390625 4.847656 0.203125 4.203125 0.203125 Z M 5.921875 -3.203125 C 6.253906 -3.203125 6.488281 -3.335938 6.625 -3.609375 C 6.769531 -3.890625 6.84375 -4.226562 6.84375 -4.625 L 6.84375 -9.71875 C 6.195312 -9.46875 5.71875 -9.148438 5.40625 -8.765625 C 5.101562 -8.390625 4.953125 -7.859375 4.953125 -7.171875 L 4.953125 -4.828125 C 4.953125 -3.742188 5.273438 -3.203125 5.921875 -3.203125 Z M 5.921875 -3.203125 "/></g></g></g><g fill="rgb(100%, 8.628845%, 8.628845%)" fill-opacity="1"><g transform="translate(213.875074, 228.944047)"><g><path d="M 5.90625 0.203125 C 2.28125 0.203125 0.46875 -1.628906 0.46875 -5.296875 L 0.5 -6.75 L 4.875 -6.75 L 4.90625 -4.59375 C 4.90625 -4.164062 4.988281 -3.835938 5.15625 -3.609375 C 5.320312 -3.390625 5.59375 -3.28125 5.96875 -3.28125 C 6.550781 -3.28125 6.84375 -3.753906 6.84375 -4.703125 C 6.84375 -5.398438 6.707031 -5.945312 6.4375 -6.34375 C 6.164062 -6.75 5.726562 -7.175781 5.125 -7.625 L 2.796875 -9.421875 C 1.992188 -10.035156 1.414062 -10.671875 1.0625 -11.328125 C 0.71875 -11.992188 0.546875 -12.925781 0.546875 -14.125 C 0.546875 -15.0625 0.789062 -15.859375 1.28125 -16.515625 C 1.78125 -17.171875 2.4375 -17.664062 3.25 -18 C 4.0625 -18.332031 4.96875 -18.5 5.96875 -18.5 C 9.519531 -18.5 11.296875 -16.734375 11.296875 -13.203125 L 11.296875 -12.84375 L 6.78125 -12.84375 L 6.78125 -13.546875 C 6.78125 -13.984375 6.707031 -14.351562 6.5625 -14.65625 C 6.414062 -14.96875 6.175781 -15.125 5.84375 -15.125 C 5.550781 -15.125 5.320312 -15.035156 5.15625 -14.859375 C 5 -14.679688 4.921875 -14.445312 4.921875 -14.15625 C 4.921875 -13.488281 5.179688 -12.96875 5.703125 -12.59375 L 8.40625 -10.625 C 9.363281 -9.90625 10.101562 -9.125 10.625 -8.28125 C 11.144531 -7.445312 11.40625 -6.382812 11.40625 -5.09375 C 11.40625 -3.394531 10.921875 -2.085938 9.953125 -1.171875 C 8.984375 -0.253906 7.632812 0.203125 5.90625 0.203125 Z M 5.90625 0.203125 "/></g></g></g><g fill="rgb(100%, 8.628845%, 8.628845%)" fill-opacity="1"><g transform="translate(229.423211, 228.944047)"><g><path d="M 2.796875 0 L 0.578125 -18.296875 L 4.328125 -18.296875 L 5.546875 -8.46875 L 6.59375 -18.296875 L 10.421875 -18.296875 L 11.671875 -8.46875 L 12.703125 -18.296875 L 16.828125 -18.296875 L 14.46875 0 L 10.09375 0 L 8.796875 -10.40625 L 7.65625 0 Z M 2.796875 0 "/></g></g></g><g fill="rgb(100%, 8.628845%, 8.628845%)" fill-opacity="1"><g transform="translate(250.495478, 228.944047)"><g><path d="M 4.203125 0.203125 C 2.785156 0.203125 1.8125 -0.265625 1.28125 -1.203125 C 0.757812 -2.148438 0.5 -3.5 0.5 -5.25 C 0.5 -6.6875 0.6875 -7.785156 1.0625 -8.546875 C 1.4375 -9.316406 1.957031 -9.878906 2.625 -10.234375 C 3.289062 -10.597656 4.304688 -10.992188 5.671875 -11.421875 L 6.875 -11.828125 L 6.875 -13.703125 C 6.875 -14.179688 6.773438 -14.550781 6.578125 -14.8125 C 6.390625 -15.070312 6.164062 -15.203125 5.90625 -15.203125 C 5.664062 -15.203125 5.457031 -15.09375 5.28125 -14.875 C 5.113281 -14.65625 5.03125 -14.363281 5.03125 -14 L 5.03125 -12.90625 L 0.78125 -12.90625 L 0.78125 -13.5 C 0.78125 -15.300781 1.195312 -16.582031 2.03125 -17.34375 C 2.875 -18.113281 4.25 -18.5 6.15625 -18.5 C 7.664062 -18.5 8.894531 -18.101562 9.84375 -17.3125 C 10.800781 -16.519531 11.28125 -15.398438 11.28125 -13.953125 L 11.28125 0 L 6.921875 0 L 6.921875 -2.171875 C 6.703125 -1.421875 6.351562 -0.835938 5.875 -0.421875 C 5.40625 -0.00390625 4.847656 0.203125 4.203125 0.203125 Z M 5.921875 -3.203125 C 6.253906 -3.203125 6.488281 -3.335938 6.625 -3.609375 C 6.769531 -3.890625 6.84375 -4.226562 6.84375 -4.625 L 6.84375 -9.71875 C 6.195312 -9.46875 5.71875 -9.148438 5.40625 -8.765625 C 5.101562 -8.390625 4.953125 -7.859375 4.953125 -7.171875 L 4.953125 -4.828125 C 4.953125 -3.742188 5.273438 -3.203125 5.921875 -3.203125 Z M 5.921875 -3.203125 "/></g></g></g><g fill="rgb(100%, 8.628845%, 8.628845%)" fill-opacity="1"><g transform="translate(266.243589, 228.944047)"><g><path d="M 7.953125 0.203125 C 6.753906 0.203125 5.894531 -0.515625 5.375 -1.953125 L 5.375 0 L 0.875 0 L 0.875 -21.59375 L 5.375 -21.59375 L 5.375 -17.421875 C 6.070312 -18.140625 6.890625 -18.5 7.828125 -18.5 C 9.242188 -18.5 10.257812 -18.078125 10.875 -17.234375 C 11.488281 -16.390625 11.796875 -15.175781 11.796875 -13.59375 L 11.796875 -4.78125 C 11.796875 -3.28125 11.476562 -2.070312 10.84375 -1.15625 C 10.21875 -0.25 9.253906 0.203125 7.953125 0.203125 Z M 6.46875 -3.203125 C 6.769531 -3.203125 6.984375 -3.296875 7.109375 -3.484375 C 7.234375 -3.679688 7.304688 -3.925781 7.328125 -4.21875 C 7.359375 -4.507812 7.375 -4.960938 7.375 -5.578125 L 7.375 -13.203125 C 7.375 -13.847656 7.316406 -14.328125 7.203125 -14.640625 C 7.085938 -14.960938 6.835938 -15.125 6.453125 -15.125 C 6.035156 -15.125 5.75 -14.960938 5.59375 -14.640625 C 5.445312 -14.328125 5.375 -13.863281 5.375 -13.25 L 5.375 -5.578125 C 5.375 -4.773438 5.441406 -4.175781 5.578125 -3.78125 C 5.710938 -3.394531 6.007812 -3.203125 6.46875 -3.203125 Z M 6.46875 -3.203125 "/></g></g></g><g fill="rgb(100%, 8.628845%, 8.628845%)" fill-opacity="1"><g transform="translate(282.441612, 228.944047)"><g><path d="M 0.84375 -19.53125 L 0.84375 -22.578125 L 5.21875 -22.578125 L 5.21875 -19.53125 Z M 0.84375 0 L 0.84375 -18.296875 L 5.21875 -18.296875 L 5.21875 0 Z M 0.84375 0 "/></g></g></g></svg>